<svg id="Layer_1" data-name="Layer 1" xmlns="http://www.w3.org/2000/svg" viewBox="0 0 242.25 49.31"><defs><style>.cls-1{fill:#50af4b;}.cls-2{fill:#173544;}</style></defs><path class="cls-1" d="M193.28,395.42H180.84a4.12,4.12,0,0,0-4,4v41.05a4.23,4.23,0,0,0,3.89,4.2,4.06,4.06,0,0,0,4.35-3.89V403.66h8.09a8.24,8.24,0,0,1,.46,16.48H193a3.78,3.78,0,0,0-3.73,3.73h0v.62a3.78,3.78,0,0,0,3.73,3.74h0a16.9,16.9,0,0,0,16.79-16.17,16.55,16.55,0,0,0-16.17-16.64Z" transform="translate(-176.8 -395.41)"/><path class="cls-1" d="M415.16,403.66h-4.05v-4a4.22,4.22,0,0,0-3.88-4.2,4.06,4.06,0,0,0-4.36,3.89v4.35h-4a4,4,0,0,0-4,4h0a4.15,4.15,0,0,0,4,4.2h4v4a4.15,4.15,0,0,0,4.05,4.2h0a4,4,0,0,0,4-4.2v-4h4a4,4,0,0,0,4-4v-.31A3.67,3.67,0,0,0,415.16,403.66Z" transform="translate(-176.8 -395.41)"/><path class="cls-2" d="M221.74,403.66a4.23,4.23,0,0,0-3.89,4.2v32.65a4.23,4.23,0,0,0,3.89,4.2,4.06,4.06,0,0,0,4.35-3.89V407.7a4,4,0,0,0-4-4Z" transform="translate(-176.8 -395.41)"/><path class="cls-2" d="M251.12,403.66a16.79,16.79,0,0,0-16.79,16.64v20.21a4.23,4.23,0,0,0,3.89,4.2,4.06,4.06,0,0,0,4.35-3.89v-4.35h16.48v4a4.23,4.23,0,0,0,3.89,4.2,4.06,4.06,0,0,0,4.35-3.89V420.14A16.42,16.42,0,0,0,251.12,403.66Zm7.93,24.72H242.57v-8.24a8.29,8.29,0,0,1,8.24-8.24H251a8.29,8.29,0,0,1,8.08,8.4Z" transform="translate(-176.8 -395.41)"/><path class="cls-2" d="M402.75,427.33a12.35,12.35,0,1,1-15.15-15.15,4.47,4.47,0,0,0,3.24-4.33v-.1a3.81,3.81,0,0,0-4.73-3.7,20.59,20.59,0,1,0,24.77,24.77,3.82,3.82,0,0,0-3.68-4.73h-.1A4.48,4.48,0,0,0,402.75,427.33Z" transform="translate(-176.8 -395.41)"/><path class="cls-2" d="M360.27,422a12.91,12.91,0,0,0,1.56-6.38,12.46,12.46,0,0,0-12.6-12.13H337.1a4.25,4.25,0,0,0-4.19,4.05v33a4.18,4.18,0,0,0,4.19,4.2h16.17a12.58,12.58,0,0,0,12.6-12.29A12.3,12.3,0,0,0,360.27,422Zm-19-10.11h8.09a4.24,4.24,0,0,1,4.2,3.89,4.06,4.06,0,0,1-3.89,4.35h-8.55V411.9Zm12.13,24.72H341.3v-8.24h12.29a4.15,4.15,0,0,1,4.19,4v.32A4.49,4.49,0,0,1,353.43,436.62Z" transform="translate(-176.8 -395.41)"/><path class="cls-2" d="M310.67,403.66A14.46,14.46,0,0,0,300.25,408a14.4,14.4,0,0,0-24.72,10.27v22.23a4.23,4.23,0,0,0,3.89,4.2,4.06,4.06,0,0,0,4.35-3.89V418.28a6.22,6.22,0,0,1,12.44-.47v22.7a4.23,4.23,0,0,0,3.89,4.2,4.06,4.06,0,0,0,4.35-3.89V418.28a6.22,6.22,0,0,1,5.91-6.38,6,6,0,0,1,6.38,5.91v22.7a4.23,4.23,0,0,0,3.88,4.2,4.07,4.07,0,0,0,4.36-3.89V418.28A14.65,14.65,0,0,0,310.67,403.66Z" transform="translate(-176.8 -395.41)"/></svg>